<svg width="484" height="251" viewBox="0 0 484 251" fill="none" xmlns="http://www.w3.org/2000/svg">
<g opacity="0.2">
<path d="M263.074 180.114C222.517 219.066 222.517 282.22 263.074 321.172C303.63 360.125 369.386 360.125 409.942 321.172C450.499 282.22 450.499 219.066 409.943 180.114C369.386 141.162 303.63 141.162 263.074 180.114Z" stroke="white" stroke-miterlimit="10" stroke-linecap="round" stroke-linejoin="round"/>
<path d="M159.838 279.263C119.282 318.216 119.282 381.37 159.838 420.322C200.395 459.274 266.15 459.274 306.707 420.322C347.264 381.37 347.264 318.216 306.707 279.263C266.15 240.311 200.395 240.311 159.838 279.263Z" stroke="white" stroke-miterlimit="10" stroke-linecap="round" stroke-linejoin="round"/>
<path d="M159.288 80.4344C118.732 119.387 118.732 182.541 159.288 221.493C199.845 260.445 265.6 260.445 306.157 221.493C346.714 182.541 346.714 119.387 306.157 80.4344C265.6 41.4822 199.845 41.4822 159.288 80.4344Z" stroke="white" stroke-miterlimit="10" stroke-linecap="round" stroke-linejoin="round"/>
<path d="M56.0544 179.585C15.4977 218.537 15.4978 281.691 56.0545 320.643C96.6112 359.595 162.367 359.595 202.923 320.643C243.48 281.691 243.48 218.537 202.923 179.585C162.367 140.633 96.6111 140.633 56.0544 179.585Z" stroke="white" stroke-miterlimit="10" stroke-linecap="round" stroke-linejoin="round"/>
</g>
</svg>
